<svg 
 xmlns="http://www.w3.org/2000/svg"
 xmlns:xlink="http://www.w3.org/1999/xlink"
 width="54px" height="46px">
<path fill-rule="evenodd"  fill="rgb(79, 63, 82)"
 d="M42.663,31.461 C43.713,30.711 43.717,25.029 43.717,25.029 C44.422,23.864 47.635,24.000 47.918,25.792 C48.200,27.584 47.149,31.175 45.635,32.343 C44.121,33.512 41.613,32.211 42.663,31.461 ZM44.679,15.232 C44.592,15.516 43.951,15.383 43.780,15.610 C44.206,15.980 45.047,16.211 45.217,16.750 C45.416,17.545 45.717,18.732 45.178,19.441 C45.007,19.669 44.837,19.839 44.638,19.981 C44.524,20.292 44.133,20.826 43.935,21.082 C43.452,21.735 41.992,21.854 41.283,21.854 C41.169,21.854 41.056,21.825 40.971,21.825 C40.918,21.818 40.866,21.816 40.814,21.809 C41.174,22.847 41.375,24.633 40.819,27.704 C40.384,30.103 38.617,33.610 32.667,34.180 C30.546,34.382 27.330,35.319 26.465,36.614 C24.410,39.696 26.036,47.212 53.596,42.755 C20.181,51.722 18.108,36.245 21.157,35.021 C24.950,33.497 10.636,34.067 9.301,33.656 C-3.266,29.780 0.721,8.205 0.721,8.205 L0.902,8.402 C1.273,7.525 1.898,6.607 2.888,5.684 C4.518,4.163 10.449,3.525 13.907,3.639 C14.919,3.582 15.794,3.567 16.372,3.565 C16.555,2.897 16.704,2.507 17.324,2.265 C17.465,1.895 17.959,1.577 18.357,1.577 L18.447,1.515 L19.101,1.265 C20.605,1.350 23.012,1.219 24.545,1.219 C26.845,1.219 29.069,0.919 31.509,0.720 C31.851,0.663 32.191,0.606 32.474,0.606 L32.532,0.606 C32.645,0.578 32.758,0.578 32.929,0.578 C32.929,0.578 32.929,0.578 32.957,0.578 C33.411,0.521 33.780,0.493 34.149,0.464 C34.178,0.436 34.234,0.436 34.292,0.436 C34.859,0.436 36.341,1.890 36.397,2.486 C36.397,2.599 36.397,2.713 36.370,2.827 C36.528,3.099 36.551,3.600 36.541,3.996 C37.797,3.837 39.538,3.796 40.247,4.623 C41.338,5.895 42.268,7.642 42.698,8.506 C42.986,8.528 43.282,8.567 43.582,8.650 C43.666,8.678 43.753,8.735 43.837,8.792 C45.001,9.388 46.070,11.807 45.673,13.084 C45.560,13.794 45.246,14.806 44.679,15.232 ZM36.660,23.103 C36.711,22.502 36.719,21.945 36.664,21.491 C36.624,21.490 36.582,21.486 36.543,21.485 C36.590,22.024 36.630,22.563 36.660,23.103 ZM35.722,28.145 C35.722,28.145 35.808,27.820 35.927,27.318 C35.780,27.507 35.615,27.687 35.408,27.842 C35.341,28.029 35.258,28.208 35.159,28.381 C35.480,28.252 35.722,28.145 35.722,28.145 ZM8.891,30.024 C8.891,30.024 8.917,29.978 8.954,29.911 C8.916,29.934 8.876,29.953 8.836,29.974 C8.852,29.988 8.891,30.024 8.891,30.024 ZM5.220,10.961 C5.588,13.572 5.988,16.155 6.356,18.738 C6.693,21.376 6.999,24.044 7.490,26.655 C7.522,26.854 7.614,26.996 7.767,27.109 C7.859,27.507 8.196,27.791 8.595,27.904 C9.270,28.074 9.822,27.705 10.036,27.138 C10.098,26.968 10.190,26.798 10.251,26.627 C10.251,26.861 10.361,27.034 10.519,27.184 C10.571,27.096 10.623,27.007 10.675,26.917 C10.476,26.725 10.295,26.558 10.282,26.570 C10.312,26.457 10.343,26.343 10.404,26.258 C10.698,26.226 10.937,26.172 11.151,26.108 C11.793,25.023 12.472,23.903 13.051,23.007 C13.271,22.100 13.461,21.154 13.625,20.412 C13.870,19.418 14.055,18.397 14.238,17.375 C14.514,17.687 14.760,17.999 15.006,18.312 C15.680,19.191 16.324,20.100 16.907,21.007 C18.072,22.824 19.085,24.698 19.882,26.655 C20.220,27.422 21.201,27.819 21.937,27.280 C22.327,27.183 22.660,26.957 22.813,26.600 C22.825,26.246 22.839,25.909 22.854,25.598 C22.882,24.945 22.910,24.293 22.938,23.639 C22.982,23.038 23.008,16.708 23.043,13.299 C22.859,12.182 22.654,11.070 22.432,9.964 C22.387,9.963 22.342,9.961 22.297,9.960 C22.434,11.508 22.524,13.079 22.581,14.651 C22.551,14.651 22.490,14.679 22.458,14.679 C22.305,13.345 22.151,11.982 21.998,10.621 C21.971,10.372 21.883,10.149 21.767,9.944 C21.361,9.930 20.947,9.909 20.526,9.865 C20.364,9.844 20.194,9.821 20.019,9.792 L18.854,10.569 L18.764,11.105 C18.980,13.554 19.283,16.004 19.514,18.454 C19.575,18.993 19.636,19.504 19.698,20.015 C18.471,17.602 16.999,15.303 15.342,13.118 C14.698,12.011 13.993,10.734 12.796,10.109 C12.644,10.223 12.521,10.365 12.429,10.507 C12.153,10.365 11.876,10.308 11.600,10.393 C10.650,10.734 10.772,11.472 10.741,12.267 C10.741,13.090 10.833,13.913 10.925,14.736 C11.079,16.296 11.079,17.829 10.925,19.390 C10.833,20.043 10.741,20.695 10.589,21.348 C10.496,21.263 10.435,21.149 10.404,21.036 C10.036,18.794 9.822,16.552 9.607,14.281 C9.454,13.657 9.300,13.032 9.117,12.409 C8.932,11.727 8.749,10.961 8.472,10.308 C8.320,9.963 8.063,9.743 7.801,9.635 C7.708,9.366 7.582,9.425 7.483,9.567 C7.183,9.552 6.938,9.695 6.938,9.996 C6.938,10.001 6.946,10.002 6.949,10.007 C6.885,10.039 6.790,10.041 6.631,9.968 C5.803,9.570 5.098,10.194 5.220,10.961 ZM10.115,10.452 C10.163,10.373 10.202,10.292 10.265,10.218 L9.236,9.798 C9.266,9.850 9.302,9.882 9.331,9.940 C9.469,10.194 9.565,10.449 9.651,10.704 L10.115,10.452 ZM9.654,10.713 C9.700,10.852 9.748,10.992 9.791,11.131 C9.822,11.131 9.822,11.103 9.852,11.103 C9.890,10.921 9.959,10.738 10.050,10.560 L9.654,10.713 ZM34.319,2.855 C34.603,2.798 34.518,2.316 34.262,2.344 C33.837,2.400 33.411,2.429 32.986,2.486 C32.815,2.457 32.645,2.486 32.504,2.486 C32.220,2.515 31.935,2.542 31.623,2.599 C27.679,2.940 23.704,3.026 19.732,2.798 C19.646,2.770 19.618,2.940 19.703,2.940 C21.236,3.196 22.769,3.366 24.301,3.451 C24.301,3.479 24.272,3.508 24.272,3.536 C22.711,3.536 21.179,3.422 19.618,3.280 C18.994,3.224 18.426,3.763 18.256,4.330 C18.144,4.777 18.267,5.214 18.515,5.556 L18.624,5.714 C18.732,5.829 18.856,5.929 18.994,6.005 C19.164,6.459 19.533,6.856 19.902,7.112 C20.413,7.424 21.037,7.509 21.634,7.595 C22.371,7.651 23.137,7.680 23.903,7.680 C24.272,7.680 24.642,7.680 25.010,7.680 C25.010,7.964 25.010,8.276 25.010,8.588 L24.954,9.836 C24.916,10.821 24.866,16.251 24.811,20.191 C24.942,22.287 24.959,24.286 24.852,26.201 C24.841,26.401 24.773,26.578 24.681,26.741 C24.683,27.365 24.691,27.989 24.727,28.607 C24.784,29.713 25.038,31.018 26.231,31.387 C26.827,31.557 27.536,31.217 27.735,30.593 C27.935,30.025 27.962,29.231 28.076,28.720 C28.076,28.947 28.076,29.600 28.076,29.799 C28.047,30.196 28.047,30.593 28.019,30.990 C28.019,30.990 28.019,31.018 28.019,31.047 C28.058,31.017 28.080,30.975 28.114,30.941 L28.574,19.642 C28.569,17.212 28.563,14.681 28.560,12.966 C28.165,12.293 28.045,11.509 28.228,10.672 C28.284,10.391 28.403,10.139 28.567,9.924 C28.576,9.072 28.587,8.220 28.587,7.367 C29.931,7.183 31.252,6.947 32.594,6.686 L34.096,5.238 C34.105,5.163 34.116,5.088 34.120,5.012 C34.178,4.926 34.206,4.841 34.234,4.728 C34.916,4.445 34.944,3.366 34.292,2.997 C34.234,2.940 34.178,2.912 34.120,2.884 C34.178,2.855 34.262,2.855 34.319,2.855 ZM38.435,9.160 C38.819,9.211 39.208,9.268 39.580,9.309 C40.148,9.366 40.687,9.395 41.226,9.423 L41.366,9.082 L38.435,9.160 ZM43.326,10.529 C43.326,10.529 43.326,10.529 43.298,10.502 C42.759,10.331 42.135,10.388 41.567,10.359 C40.886,10.303 40.176,10.274 39.495,10.189 C38.132,10.047 36.799,9.849 35.436,9.593 C35.352,9.565 35.295,9.621 35.238,9.707 C34.654,9.572 34.070,9.436 33.487,9.293 L32.430,9.321 C33.441,9.640 34.711,9.853 35.663,10.104 L35.210,10.104 C34.954,10.047 33.052,9.990 32.371,9.707 C32.309,9.604 32.219,9.454 32.129,9.329 L30.497,9.373 L30.625,9.174 C30.477,9.200 30.323,9.229 30.173,9.255 C30.144,9.318 30.115,9.381 30.101,9.451 C29.902,10.331 30.129,11.012 30.612,11.524 C30.527,11.751 30.527,12.034 30.612,12.290 C30.981,13.510 31.236,14.758 31.463,16.035 C31.151,16.178 30.867,16.405 30.697,16.717 C30.214,17.539 30.527,18.505 31.294,19.016 C31.520,19.157 31.719,19.242 31.946,19.300 C32.059,20.264 32.172,21.230 32.258,22.223 C32.314,22.762 32.400,23.301 32.457,23.869 C32.485,24.153 32.513,24.550 32.626,24.891 C32.598,25.486 32.655,26.083 32.825,26.707 C33.025,27.445 33.818,27.644 34.443,27.359 C35.947,26.707 35.806,24.834 35.777,23.471 C35.748,22.053 35.522,20.633 35.295,19.242 C35.777,19.214 36.260,19.214 36.742,19.214 C38.530,19.186 40.318,19.300 42.077,19.555 C43.298,19.697 44.121,18.249 43.837,17.228 C43.610,16.405 42.759,15.865 41.936,15.865 C40.318,15.695 38.700,15.638 37.083,15.666 C36.231,15.695 35.408,15.723 34.557,15.808 C34.557,15.808 34.557,15.808 34.529,15.808 C34.471,15.496 33.961,13.652 33.847,13.084 C34.415,13.226 34.954,13.339 35.408,13.425 C36.628,13.652 37.877,13.794 39.098,13.907 C39.694,13.964 40.290,14.021 40.886,14.077 C40.999,14.077 41.084,14.077 41.198,14.106 C41.226,14.106 41.254,14.106 41.283,14.106 C41.708,14.333 42.106,14.446 42.617,14.418 C43.497,14.390 44.263,13.765 44.376,12.857 C44.689,11.977 44.178,10.898 43.326,10.529 ZM19.761,6.261 C20.866,6.601 22.002,6.799 23.137,6.914 C22.626,6.942 22.116,6.942 21.634,6.914 C20.953,6.885 20.214,6.686 19.761,6.261 ZM7.951,10.223 C7.877,10.053 7.617,9.806 7.380,9.753 C7.406,9.690 7.443,9.625 7.483,9.567 C7.586,9.572 7.692,9.591 7.801,9.635 C7.820,9.688 7.838,9.740 7.854,9.821 C7.823,9.594 8.042,10.450 7.951,10.223 ZM7.166,9.780 C7.097,9.817 7.037,9.879 6.999,9.996 C6.999,10.043 6.963,10.028 6.949,10.007 C7.080,9.939 7.072,9.746 7.166,9.780 ZM7.332,9.938 C7.250,9.833 7.202,9.793 7.166,9.780 C7.231,9.745 7.303,9.736 7.380,9.753 C7.344,9.840 7.324,9.916 7.332,9.938 Z"/>
</svg>