<svg 
 xmlns="http://www.w3.org/2000/svg"
 xmlns:xlink="http://www.w3.org/1999/xlink"
 width="23px" height="20px">
<defs>
<filter id="Filter_0">
    <feFlood flood-color="rgb(184, 170, 175)" flood-opacity="1" result="floodOut" />
    <feComposite operator="atop" in="floodOut" in2="SourceGraphic" result="compOut" />
    <feBlend mode="normal" in="compOut" in2="SourceGraphic" />
</filter>

</defs>
<g filter="url(#Filter_0)">
<path fill-rule="evenodd"  fill="rgb(242, 92, 103)"
 d="M21.615,13.934 C21.175,14.692 20.044,15.496 17.768,16.222 C17.119,16.429 16.422,16.570 15.708,16.684 C15.718,16.716 15.739,16.746 15.747,16.778 C16.381,19.334 18.014,19.260 18.014,19.260 C18.014,19.260 13.516,19.833 10.971,17.219 C10.732,17.247 10.483,17.268 10.250,17.301 C7.258,17.731 3.529,16.459 2.291,15.167 C1.224,14.054 -0.102,11.658 0.166,7.725 C0.391,4.415 1.284,1.860 3.790,1.034 C7.302,-0.121 12.499,0.171 17.200,0.583 C19.672,0.798 21.726,1.799 22.293,4.437 C22.914,7.328 23.012,11.517 21.615,13.934 ZM15.696,6.721 C14.756,3.665 11.229,6.486 11.229,6.486 C11.229,6.486 10.792,6.266 8.441,6.032 C6.404,5.827 5.480,8.326 7.492,10.067 C7.502,10.243 7.525,10.573 7.574,11.292 C7.638,11.751 9.050,11.583 8.986,11.124 C8.984,11.073 8.983,11.038 8.981,10.992 C10.726,11.928 12.286,13.391 12.286,12.951 C12.286,12.480 16.636,9.777 15.696,6.721 Z"/>
</g>
</svg>