<svg 
 xmlns="http://www.w3.org/2000/svg"
 xmlns:xlink="http://www.w3.org/1999/xlink"
 width="23px" height="20px">
<defs>
<filter id="Filter_0">
    <feFlood flood-color="rgb(184, 170, 175)" flood-opacity="1" result="floodOut" />
    <feComposite operator="atop" in="floodOut" in2="SourceGraphic" result="compOut" />
    <feBlend mode="normal" in="compOut" in2="SourceGraphic" />
</filter>

</defs>
<g filter="url(#Filter_0)">
<path fill-rule="evenodd"  fill="rgb(242, 92, 103)"
 d="M21.615,13.934 C21.176,14.692 20.044,15.496 17.767,16.222 C17.119,16.429 16.422,16.570 15.709,16.684 C15.719,16.716 15.739,16.746 15.747,16.778 C16.382,19.334 18.014,19.260 18.014,19.260 C18.014,19.260 13.515,19.834 10.971,17.219 C10.731,17.247 10.483,17.268 10.249,17.301 C7.258,17.731 3.529,16.459 2.291,15.167 C1.224,14.054 -0.101,11.658 0.166,7.725 C0.392,4.415 1.284,1.860 3.790,1.034 C7.302,-0.121 12.499,0.171 17.201,0.583 C19.672,0.798 21.726,1.799 22.293,4.437 C22.914,7.328 23.012,11.517 21.615,13.934 ZM9.774,13.767 C9.902,14.111 10.545,14.431 10.870,14.395 C11.283,14.387 12.130,14.041 12.069,13.640 C12.025,13.357 12.232,13.007 11.978,12.844 C11.888,12.772 11.779,12.717 11.652,12.682 C11.597,12.554 10.734,12.446 10.607,12.464 C10.046,12.537 9.576,13.151 9.774,13.767 ZM14.829,5.914 C14.720,5.734 14.593,5.552 14.431,5.389 C13.471,4.158 11.557,3.626 10.054,3.445 C9.874,3.427 9.837,3.680 10.017,3.699 C10.290,3.751 10.553,3.873 10.810,4.013 C10.752,4.060 10.701,4.107 10.670,4.169 C10.416,4.097 10.127,4.006 9.855,4.060 C9.782,4.296 9.603,5.487 9.621,5.758 C9.676,5.795 9.749,5.831 9.839,5.831 C10.345,5.976 10.870,6.067 11.378,6.284 C11.378,6.284 11.378,6.284 11.396,6.284 C11.414,6.301 11.432,6.301 11.451,6.320 C12.029,6.574 12.380,6.316 12.833,6.786 C12.905,6.858 13.050,7.040 13.104,7.166 C12.761,7.384 12.714,7.876 11.728,8.076 C11.167,8.058 10.905,8.079 10.344,8.007 C10.272,7.989 10.199,8.043 10.163,8.097 C10.145,8.170 10.108,8.242 10.108,8.314 C10.072,8.332 10.054,8.351 10.017,8.369 C9.999,8.387 9.982,8.405 9.964,8.441 C9.891,9.654 9.928,9.301 9.982,10.515 C10.017,10.515 10.054,10.515 10.091,10.515 C10.091,10.496 10.108,10.496 10.108,10.515 C10.127,10.568 10.145,10.623 10.145,10.677 C10.181,10.750 10.199,10.804 10.235,10.840 C10.253,10.931 10.253,10.985 10.253,11.021 C10.308,11.166 10.399,11.275 10.525,11.366 C10.761,11.565 11.105,11.546 11.394,11.528 C11.485,11.528 11.576,11.437 11.576,11.366 C11.576,11.112 11.576,10.877 11.576,10.623 C11.576,10.587 11.576,10.568 11.557,10.533 C11.539,9.917 11.521,11.287 11.503,10.653 C11.503,10.491 11.285,10.527 11.285,10.690 C11.285,10.651 11.285,10.604 11.285,10.566 C11.267,10.240 11.249,10.599 11.213,10.292 C11.213,10.237 11.195,10.201 11.177,10.164 C11.249,10.164 11.322,10.147 11.394,10.147 C11.630,10.164 11.843,10.107 12.079,10.089 C12.507,10.151 13.257,9.837 13.829,9.522 C14.217,9.308 15.022,8.526 15.167,8.037 C15.330,7.530 15.101,6.385 14.829,5.914 ZM10.571,6.334 C11.252,6.693 11.842,6.529 12.354,6.729 C12.465,6.793 12.576,6.849 12.688,6.949 C12.725,6.985 12.742,7.022 12.761,7.057 C12.779,7.076 12.814,7.094 12.851,7.094 C12.694,6.907 12.529,6.797 12.354,6.729 C11.821,6.423 11.284,6.457 10.571,6.334 ZM11.829,4.637 C11.686,4.581 11.542,4.475 11.398,4.364 C11.545,4.459 11.690,4.553 11.829,4.637 Z"/>
</g>
</svg>